# xmcd CD database file
#
# Track frame offsets:
#	150
#	14163
#	30149
#	46640
#	64400
#	83953
#	97000
#	111988
#	126458
#	143350
#
# Disc length: 2148 seconds
#
# Revision: 3
# Processed by: cddbd v1.5.2PL0 Copyright (c) Steve Scherf et al.
# Submitted via: CDex 1.79
#
DISCID=8308620a
DTITLE=Don Williams -  - And So It Goes
DYEAR=2012
DGENRE=Country
TTITLE0=Don Williams - Better Than Today
TTITLE1=Don Williams - Heart Of Hearts
TTITLE2=Don Williams - She's With Me
TTITLE3=Don Williams and Alison Krauss - I Just Come Here For The Music
TTITLE4=Don Williams - Infinity 
TTITLE5=Don Williams - What If It Worked Like That
TTITLE6=Don Williams - She's A Natural
TTITLE7=Don Williams - Imagine That
TTITLE8=Don Williams - First Fool In Line
TTITLE9=Don Williams - And So It Goes
EXTD=YEAR: 2012
EXTT0=
EXTT1=
EXTT2=
EXTT3=
EXTT4=
EXTT5=
EXTT6=
EXTT7=
EXTT8=
EXTT9=
PLAYORDER=
